<?xml version="1.0" encoding="UTF-8"?> <svg xmlns="http://www.w3.org/2000/svg" width="202" height="58" viewBox="0 0 202 58" fill="none"><g clip-path="url(#clip0_96_7655)"><path d="M71.7734 8.66398L47.6426 8.65448C44.6006 8.88259 43.2643 10.6695 42.5848 12.3186C42.0102 13.7063 41.9463 15.5882 42.5574 17.0044C43.1367 18.3493 43.9849 19.2333 44.8196 19.8178C45.8913 20.5639 47.1501 20.9156 48.4225 20.9156H50.2559C51.8248 20.9394 51.729 22.3556 51.729 22.3556C51.7245 22.9116 51.2958 23.3251 50.9309 23.4962C50.6755 23.615 50.3973 23.6625 50.1146 23.6625L30.4259 23.7433C27.5344 23.7575 25.7056 25.5444 25.0534 27.0557C24.3921 28.5859 24.31 30.0877 24.7661 31.7035C26.002 36.109 30.2298 35.9236 30.2298 35.9236H45.9734C47.2185 35.9236 47.1729 37.3303 47.1729 37.3303C47.0543 38.5707 45.8913 38.5612 45.8913 38.5612L39.707 38.6325C33.436 38.6325 33.6504 44.5207 33.6504 44.5207C33.9103 50.9696 40.1357 50.5182 40.1357 50.5182C40.1357 50.5182 71.6731 50.4754 71.7506 50.4754C82.108 50.2045 90.4313 40.9516 90.4313 29.5744C90.4313 18.1973 82.1308 8.93012 71.7734 8.66398ZM72.5396 48.8311H72.4575C72.4575 48.8311 39.3376 48.8121 39.1232 48.8121C36.8976 48.8121 35.0961 46.9159 35.0961 44.4874C35.0961 42.0589 36.8976 40.1865 39.1232 40.1865L46.2379 40.1722C47.7247 40.1722 48.9288 38.8558 48.9288 37.2353C48.9288 35.6147 47.7247 34.2983 46.2379 34.2983H30.0519C27.8263 34.2983 26.0248 32.3261 26.0248 29.8976C26.0248 27.4691 27.8263 25.4969 30.0519 25.4969H50.2559C51.8841 25.4969 53.2022 24.0569 53.2022 22.2795C53.2022 20.5022 51.8841 19.0622 50.2559 19.0622H47.3371V19.0432C45.2574 18.8673 43.6201 16.9759 43.6201 14.6615C43.6201 12.3471 45.2574 10.4509 47.3371 10.2798V10.2608H71.4998V10.2703C81.0818 10.4984 88.7849 19.0479 88.7849 29.5744C88.7849 40.101 81.6702 48.0754 72.5396 48.8311Z" fill="#9430B8" stroke="#9430B8" stroke-miterlimit="10"></path><path d="M36.7424 15.9874H28.8843C28.048 15.9874 27.3701 16.6938 27.3701 17.5652C27.3701 18.4366 28.048 19.143 28.8843 19.143H36.7424C37.5786 19.143 38.2566 18.4366 38.2566 17.5652C38.2566 16.6938 37.5786 15.9874 36.7424 15.9874Z" fill="#9430B8"></path><path d="M67.1169 54.3296H60.6269C59.7907 54.3296 59.1128 55.036 59.1128 55.9073C59.1128 56.7787 59.7907 57.4851 60.6269 57.4851H67.1169C67.9531 57.4851 68.631 56.7787 68.631 55.9073C68.631 55.036 67.9531 54.3296 67.1169 54.3296Z" fill="#9430B8"></path><path d="M55.2179 54.4436H28.3279C27.4916 54.4436 26.8137 55.15 26.8137 56.0214C26.8137 56.8928 27.4916 57.5992 28.3279 57.5992H55.2179C56.0541 57.5992 56.732 56.8928 56.732 56.0214C56.732 55.15 56.0541 54.4436 55.2179 54.4436Z" fill="#9430B8"></path><path d="M33.5134 9.54791H9.40088C8.56463 9.54791 7.88672 10.2543 7.88672 11.1257C7.88672 11.9971 8.56463 12.7035 9.40088 12.7035H33.5134C34.3496 12.7035 35.0276 11.9971 35.0276 11.1257C35.0276 10.2543 34.3496 9.54791 33.5134 9.54791Z" fill="#9430B8"></path><path d="M69.575 15.5549C62.1866 15.5549 56.1938 21.7948 56.1938 29.4984C56.1938 37.202 62.1821 43.4419 69.575 43.4419C76.9679 43.4419 82.9561 37.202 82.9561 29.4984C82.9561 21.7948 76.9679 15.5549 69.575 15.5549ZM78.9336 29.6933C78.9336 30.2635 78.7101 30.7768 78.3544 31.1475C77.9986 31.5229 77.5061 31.7558 76.9588 31.7558H71.7322V37.202C71.7322 37.7723 71.5087 38.2855 71.153 38.6562C70.7973 39.0317 70.3047 39.2645 69.7574 39.2645H69.3834C68.298 39.2645 67.4178 38.3473 67.4178 37.2163V31.7605H62.1821C61.0966 31.7605 60.2164 30.8433 60.2164 29.7123V29.3226C60.2164 28.7523 60.4399 28.239 60.7956 27.8683C61.1514 27.4929 61.6439 27.26 62.1912 27.26H67.4178V21.8138C67.4178 21.2435 67.6412 20.7303 67.997 20.3596C68.3527 19.9841 68.8453 19.7513 69.3926 19.7513H69.7665C70.852 19.7513 71.7322 20.6685 71.7322 21.7996V27.2553H76.9679C78.0534 27.2553 78.9336 28.1725 78.9336 29.3036V29.6933Z" fill="#9430B8"></path><path d="M71.7637 8.66398L47.6424 8.65448C44.6004 8.88259 43.2641 10.6695 42.5846 12.3186C42.0099 13.7063 41.9461 15.5882 42.5572 17.0044C43.1364 18.3493 43.9847 19.2333 44.8193 19.8178C45.8911 20.5639 47.1498 20.9156 48.4223 20.9156H50.2557C51.8246 20.9394 51.7288 22.3556 51.7288 22.3556C51.7242 22.9116 51.2955 23.3251 50.9307 23.4962C50.6753 23.615 50.3971 23.6625 50.1143 23.6625L30.4257 23.7433C27.5342 23.7575 25.7053 25.5444 25.0532 27.0557C24.3919 28.5859 24.3098 30.0877 24.7658 31.7035C26.0018 36.109 30.2296 35.9236 30.2296 35.9236H45.9732C47.2183 35.9236 47.1726 37.3303 47.1726 37.3303C47.0541 38.5707 45.8911 38.5612 45.8911 38.5612L39.7067 38.6325C33.4358 38.6325 33.6501 44.5207 33.6501 44.5207C33.9101 50.9696 40.1355 50.5182 40.1355 50.5182C40.1355 50.5182 71.6728 50.4754 71.7504 50.4754C82.1077 50.2045 90.4311 40.9516 90.4311 29.5744C90.4311 18.1973 82.1306 8.93012 71.7732 8.66398H71.7637ZM72.5394 48.8311H72.4573C72.4573 48.8311 39.3373 48.8121 39.123 48.8121C36.8973 48.8121 35.0959 46.9159 35.0959 44.4874C35.0959 42.0589 36.8973 40.1865 39.123 40.1865L46.2377 40.1722C47.7245 40.1722 48.9285 38.8558 48.9285 37.2353C48.9285 35.6147 47.7245 34.2983 46.2377 34.2983H30.0517C27.8261 34.2983 26.0246 32.3261 26.0246 29.8976C26.0246 27.4691 27.8261 25.4969 30.0517 25.4969H50.2557C51.8839 25.4969 53.2019 24.0569 53.2019 22.2795C53.2019 20.5022 51.8839 19.0622 50.2557 19.0622H47.3368V19.0432C45.2571 18.8673 43.6198 16.9759 43.6198 14.6615C43.6198 12.3471 45.2571 10.4509 47.3368 10.2798V10.2608H71.4995V10.2703C81.0816 10.4984 88.7846 19.0479 88.7846 29.5744C88.7846 40.101 81.6699 48.0754 72.5394 48.8311Z" fill="#9430B8" stroke="#9430B8" stroke-miterlimit="10"></path><path d="M36.7424 15.9874H28.8843C28.048 15.9874 27.3701 16.6938 27.3701 17.5652C27.3701 18.4366 28.048 19.143 28.8843 19.143H36.7424C37.5786 19.143 38.2566 18.4366 38.2566 17.5652C38.2566 16.6938 37.5786 15.9874 36.7424 15.9874Z" fill="#9430B8"></path><path d="M67.1169 54.3296H60.6269C59.7907 54.3296 59.1128 55.036 59.1128 55.9073C59.1128 56.7787 59.7907 57.4851 60.6269 57.4851H67.1169C67.9531 57.4851 68.631 56.7787 68.631 55.9073C68.631 55.036 67.9531 54.3296 67.1169 54.3296Z" fill="#9430B8"></path><path d="M55.2179 54.4436H28.3279C27.4916 54.4436 26.8137 55.15 26.8137 56.0214C26.8137 56.8928 27.4916 57.5992 28.3279 57.5992H55.2179C56.0541 57.5992 56.732 56.8928 56.732 56.0214C56.732 55.15 56.0541 54.4436 55.2179 54.4436Z" fill="#9430B8"></path><path d="M72.0795 1.61954H50.6624C49.8261 1.61954 49.1482 2.32594 49.1482 3.19733C49.1482 4.06871 49.8261 4.77511 50.6624 4.77511H72.0795C72.9157 4.77511 73.5936 4.06871 73.5936 3.19733C73.5936 2.32594 72.9157 1.61954 72.0795 1.61954Z" fill="#9430B8"></path><path d="M33.5134 9.54794H9.40088C8.56463 9.54794 7.88672 10.2543 7.88672 11.1257C7.88672 11.9971 8.56463 12.7035 9.40088 12.7035H33.5134C34.3496 12.7035 35.0276 11.9971 35.0276 11.1257C35.0276 10.2543 34.3496 9.54794 33.5134 9.54794Z" fill="#9430B8"></path><path d="M69.575 15.5549C62.1866 15.5549 56.1938 21.7948 56.1938 29.4984C56.1938 37.202 62.1821 43.4419 69.575 43.4419C76.9679 43.4419 82.9561 37.202 82.9561 29.4984C82.9561 21.7948 76.9679 15.5549 69.575 15.5549ZM78.9336 29.6933C78.9336 30.2635 78.7101 30.7768 78.3544 31.1475C77.9986 31.5229 77.5061 31.7558 76.9588 31.7558H71.7322V37.202C71.7322 37.7723 71.5087 38.2855 71.153 38.6562C70.7973 39.0317 70.3047 39.2645 69.7574 39.2645H69.3834C68.298 39.2645 67.4178 38.3473 67.4178 37.2163V31.7605H62.1821C61.0966 31.7605 60.2164 30.8433 60.2164 29.7123V29.3226C60.2164 28.7523 60.4399 28.239 60.7956 27.8683C61.1514 27.4929 61.6439 27.26 62.1912 27.26H67.4178V21.8138C67.4178 21.2435 67.6412 20.7303 67.997 20.3596C68.3527 19.9841 68.8453 19.7513 69.3926 19.7513H69.7665C70.852 19.7513 71.7322 20.6685 71.7322 21.7996V27.2553H76.9679C78.0534 27.2553 78.9336 28.1725 78.9336 29.3036V29.6933Z" fill="#9430B8"></path><path d="M21.2404 31.4659C22.1435 32.6777 22.595 34.0844 22.595 35.686C22.595 38.0622 21.8379 39.9013 20.3283 41.2035C18.8187 42.5056 16.6524 43.1567 13.8293 43.1567H6.14446C3.20736 43.1567 0.82666 40.676 0.82666 37.6154V15.7498H13.5283C16.178 15.7498 18.2532 16.3581 19.7491 17.5699C21.245 18.7818 21.9975 20.5402 21.9975 22.8355C21.9975 24.4609 21.587 25.8248 20.7707 26.9178C19.9543 28.0156 18.878 28.7332 17.5371 29.0659C19.0969 29.4509 20.3283 30.254 21.2313 31.4659H21.2404ZM8.14661 25.3115C8.14661 26.0814 8.74407 26.704 9.4829 26.704H11.8271C13.6605 26.704 14.5772 25.9056 14.5772 24.304C14.5772 22.7025 13.6468 21.828 11.7906 21.828H8.15117V25.3115H8.14661ZM15.1291 34.5597C15.1291 32.8583 14.1759 32.0029 12.2695 32.0029H8.14661V35.8143C8.14661 36.4891 8.6711 37.0356 9.31872 37.0356H12.2695C14.1759 37.0356 15.1291 36.2087 15.1291 34.5597Z" fill="#9430B8"></path><path d="M112.099 17.1089C114.124 18.297 115.716 19.9508 116.883 22.0752C118.046 24.1947 118.63 26.5852 118.63 29.2417C118.63 31.8983 118.042 34.2888 116.865 36.4083C115.688 38.5279 114.088 40.1865 112.063 41.3746C110.038 42.5627 107.812 43.1567 105.386 43.1567C102.959 43.1567 100.725 42.5627 98.6907 41.3746C96.652 40.1865 95.0466 38.5326 93.87 36.4083C92.6933 34.2888 92.105 31.8983 92.105 29.2417C92.105 26.5852 92.6933 24.1947 93.87 22.0752C95.0466 19.9556 96.652 18.297 98.6907 17.1089C100.725 15.9208 102.959 15.3268 105.386 15.3268C107.812 15.3268 110.074 15.9208 112.099 17.1089ZM101.044 24.1615C99.9905 25.4018 99.4614 27.0937 99.4614 29.2417C99.4614 31.3898 99.9905 33.0104 101.044 34.265C102.098 35.5196 103.548 36.1422 105.386 36.1422C107.224 36.1422 108.638 35.5149 109.691 34.265C110.745 33.0151 111.274 31.3375 111.274 29.2417C111.274 27.1459 110.754 25.4018 109.709 24.1615C108.665 22.9211 107.228 22.3033 105.386 22.3033C103.543 22.3033 102.098 22.9258 101.044 24.1615Z" fill="#9430B8"></path><path d="M138.328 39.4023C137.584 40.6427 136.494 41.6217 135.058 42.3441C133.621 43.0664 131.902 43.4276 129.895 43.4276C126.848 43.4276 124.34 42.6672 122.374 41.1417C120.418 39.6304 119.346 37.4776 119.164 34.688C119.164 34.6642 119.182 34.6404 119.205 34.6404H124.012C124.988 34.6404 125.927 35.0206 126.648 35.7002L127.774 36.7695C128.271 37.2352 128.878 37.4681 129.594 37.4681C130.237 37.4681 130.739 37.3018 131.099 36.9644C131.459 36.6317 131.637 36.1517 131.637 35.5339C131.637 34.707 131.277 34.0702 130.561 33.6187C129.84 33.1672 128.705 32.6682 127.145 32.1264C125.485 31.5324 124.117 30.9526 123.04 30.3871C121.964 29.8215 121.034 28.9661 120.254 27.8303C119.474 26.6945 119.082 25.2355 119.082 23.4581C119.082 21.6807 119.501 20.293 120.345 19.0669C121.189 17.8408 122.338 16.9141 123.797 16.282C125.257 15.65 126.917 15.3315 128.773 15.3315C131.792 15.3315 134.2 16.0729 135.997 17.5557C137.78 19.0289 138.766 21.0962 138.948 23.7575C138.948 23.7813 138.93 23.805 138.907 23.805H133.813C132.786 23.805 131.801 23.3868 131.067 22.6407L130.351 21.9088C129.941 21.4954 129.402 21.291 128.737 21.291C128.166 21.291 127.72 21.4479 127.4 21.7568C127.076 22.0657 126.917 22.5314 126.917 23.1492C126.917 23.9238 127.268 24.5321 127.975 24.9694C128.682 25.4066 129.79 25.9008 131.3 26.4426C132.96 27.0604 134.333 27.6687 135.423 28.2628C136.513 28.8568 137.452 29.7217 138.246 30.8576C139.039 31.9934 139.436 33.4619 139.436 35.2678C139.436 36.7885 139.067 38.1715 138.323 39.4118L138.328 39.4023Z" fill="#9430B8"></path><path d="M160.383 15.7498V19.0527C160.383 20.5829 159.193 21.828 157.72 21.828H153.287V39.6875C153.287 41.6027 151.796 43.1567 149.958 43.1567H146.003V21.828H141.83C140.257 21.828 138.98 20.4974 138.98 18.8578V15.7498H160.374H160.383Z" fill="#9430B8"></path><path d="M173.359 39.8681L171.014 34.3933C170.663 33.5759 169.888 33.0532 169.03 33.0532V43.1567H164.867C163.124 43.1567 161.715 41.6835 161.715 39.8728V15.7498H173.267C175.37 15.7498 177.162 16.1299 178.635 16.8903C180.108 17.6507 181.217 18.7057 181.96 20.0459C182.704 21.3861 183.073 22.8973 183.073 24.5749C183.073 26.4854 182.567 28.144 181.55 29.5507C180.533 30.9574 179.073 31.9459 177.167 32.5114L183.146 43.1567H178.686C176.464 43.1567 174.421 41.8973 173.359 39.8681ZM169.035 24.19C169.035 26.262 169.724 28.8521 172.638 28.8521C174.668 28.8521 175.685 26.9891 175.685 25.0787C175.685 24.1757 175.429 23.4676 174.923 22.9496C174.417 22.4316 173.655 22.175 172.638 22.175H169.035V24.1852V24.19Z" fill="#9430B8"></path><path d="M190.758 37.0784H198.429C200.308 37.0784 201.827 38.6657 201.827 40.6189V43.152H182.658V38.4233C182.658 37.7485 182.863 37.0879 183.246 36.5462L193.544 21.8233H185.91C184.154 21.8233 182.735 20.3406 182.735 18.5156V15.7498H201.79V21.5191L190.758 37.0784Z" fill="#9430B8"></path></g><defs><clipPath id="clip0_96_7655"><rect width="201" height="57" fill="white" transform="translate(0.82666 0.599182)"></rect></clipPath></defs></svg> 